<svg width="1920" height="1080" viewBox="0 0 1920 1080" fill="none" xmlns="http://www.w3.org/2000/svg">
<path opacity="0.4" d="M1532.01 1210.99C1200.8 360.197 1612.15 507.495 1852.51 395.459C2044.8 305.83 2141.22 75.3602 2165.39 -28.671" stroke="#F8F8F8" stroke-width="2"/>
<path opacity="0.4" d="M-609.677 997.528C657.431 1169.57 362.901 659.347 469.473 296.612C554.73 6.42341 858.458 -199.594 999.664 -266.329" stroke="#F8F8F8" stroke-width="2"/>
<circle cx="1867.51" cy="819.5" r="2.5" transform="rotate(90 1867.51 819.5)" fill="#29AAF3"/>
<circle cx="1867.51" cy="893.127" r="2.5" transform="rotate(90 1867.51 893.127)" fill="#29AAF3"/>
<circle cx="1867.51" cy="966.754" r="2.5" transform="rotate(90 1867.51 966.754)" fill="#29AAF3"/>
<circle cx="1867.51" cy="1040.38" r="2.5" transform="rotate(90 1867.51 1040.38)" fill="#29AAF3"/>
<circle cx="1793.88" cy="819.5" r="2.5" transform="rotate(90 1793.88 819.5)" fill="#29AAF3"/>
<circle cx="1793.88" cy="893.127" r="2.5" transform="rotate(90 1793.88 893.127)" fill="#29AAF3"/>
<circle cx="1793.88" cy="966.754" r="2.5" transform="rotate(90 1793.88 966.754)" fill="#29AAF3"/>
<circle cx="1793.88" cy="1040.38" r="2.5" transform="rotate(90 1793.88 1040.38)" fill="#29AAF3"/>
<circle cx="1720.26" cy="819.5" r="2.5" transform="rotate(90 1720.26 819.5)" fill="#29AAF3"/>
<circle cx="1720.26" cy="893.127" r="2.5" transform="rotate(90 1720.26 893.127)" fill="#29AAF3"/>
<circle cx="1720.26" cy="966.754" r="2.5" transform="rotate(90 1720.26 966.754)" fill="#29AAF3"/>
<circle cx="1720.26" cy="1040.38" r="2.5" transform="rotate(90 1720.26 1040.38)" fill="#29AAF3"/>
<circle cx="1646.63" cy="819.5" r="2.5" transform="rotate(90 1646.63 819.5)" fill="#29AAF3"/>
<circle cx="1646.63" cy="893.127" r="2.5" transform="rotate(90 1646.63 893.127)" fill="#29AAF3"/>
<circle cx="1646.63" cy="966.754" r="2.5" transform="rotate(90 1646.63 966.754)" fill="#29AAF3"/>
<circle cx="1646.63" cy="1040.38" r="2.5" transform="rotate(90 1646.63 1040.38)" fill="#29AAF3"/>
<circle cx="1573" cy="819.5" r="2.5" transform="rotate(90 1573 819.5)" fill="#29AAF3"/>
<circle cx="1573" cy="893.127" r="2.5" transform="rotate(90 1573 893.127)" fill="#29AAF3"/>
<circle cx="1573" cy="966.754" r="2.5" transform="rotate(90 1573 966.754)" fill="#29AAF3"/>
<circle cx="1573" cy="1040.38" r="2.5" transform="rotate(90 1573 1040.38)" fill="#29AAF3"/>
<circle cx="374.338" cy="165.651" r="6.5686" transform="rotate(90 374.338 165.651)" fill="#29AAF3"/>
<circle cx="374.338" cy="254.365" r="6.5686" transform="rotate(90 374.338 254.365)" fill="#29AAF3"/>
<circle cx="374.338" cy="343.08" r="6.5686" transform="rotate(90 374.338 343.08)" fill="#29AAF3"/>
<circle cx="374.338" cy="431.797" r="6.5686" transform="rotate(90 374.338 431.797)" fill="#29AAF3"/>
<circle cx="374.338" cy="520.514" r="6.5686" transform="rotate(90 374.338 520.514)" fill="#29AAF3"/>
<circle cx="285.622" cy="165.651" r="6.5686" transform="rotate(90 285.622 165.651)" fill="#29AAF3"/>
<circle cx="285.622" cy="254.365" r="6.5686" transform="rotate(90 285.622 254.365)" fill="#29AAF3"/>
<circle cx="285.622" cy="343.08" r="6.5686" transform="rotate(90 285.622 343.08)" fill="#29AAF3"/>
<circle cx="285.622" cy="431.797" r="6.5686" transform="rotate(90 285.622 431.797)" fill="#29AAF3"/>
<circle cx="285.622" cy="520.514" r="6.5686" transform="rotate(90 285.622 520.514)" fill="#29AAF3"/>
<circle cx="196.907" cy="165.651" r="6.5686" transform="rotate(90 196.907 165.651)" fill="#29AAF3"/>
<circle cx="196.907" cy="254.365" r="6.5686" transform="rotate(90 196.907 254.365)" fill="#29AAF3"/>
<circle cx="196.907" cy="343.08" r="6.5686" transform="rotate(90 196.907 343.08)" fill="#29AAF3"/>
<circle cx="196.907" cy="431.797" r="6.5686" transform="rotate(90 196.907 431.797)" fill="#29AAF3"/>
<circle cx="196.907" cy="520.514" r="6.5686" transform="rotate(90 196.907 520.514)" fill="#29AAF3"/>
<circle cx="108.19" cy="165.651" r="6.5686" transform="rotate(90 108.19 165.651)" fill="#29AAF3"/>
<circle cx="108.19" cy="254.365" r="6.5686" transform="rotate(90 108.19 254.365)" fill="#29AAF3"/>
<circle cx="108.19" cy="343.08" r="6.5686" transform="rotate(90 108.19 343.08)" fill="#29AAF3"/>
<circle cx="108.19" cy="431.797" r="6.5686" transform="rotate(90 108.19 431.797)" fill="#29AAF3"/>
<circle cx="108.19" cy="520.514" r="6.5686" transform="rotate(90 108.19 520.514)" fill="#29AAF3"/>
<circle cx="19.4744" cy="165.651" r="6.5686" transform="rotate(90 19.4744 165.651)" fill="#29AAF3"/>
<circle cx="19.4749" cy="254.365" r="6.5686" transform="rotate(90 19.4749 254.365)" fill="#29AAF3"/>
<circle cx="19.4749" cy="343.08" r="6.5686" transform="rotate(90 19.4749 343.08)" fill="#29AAF3"/>
<circle cx="19.4749" cy="431.797" r="6.5686" transform="rotate(90 19.4749 431.797)" fill="#29AAF3"/>
<circle cx="19.4749" cy="520.514" r="6.5686" transform="rotate(90 19.4749 520.514)" fill="#29AAF3"/>
<circle cx="554.064" cy="819.563" r="24.2292" transform="rotate(-22.0941 554.064 819.563)" fill="#FF7D23"/>
<circle cx="879.995" cy="292.495" r="12.6619" transform="rotate(-22.0941 879.995 292.495)" fill="#FF7D23"/>
<circle cx="1389.52" cy="368.019" r="6.1559" transform="rotate(-22.0941 1389.52 368.019)" fill="#FF7D23"/>
</svg>
