<svg width="812" height="368" viewBox="0 0 812 368" fill="none" xmlns="http://www.w3.org/2000/svg">
<circle cx="805.009" cy="6.5686" r="6.5686" transform="rotate(90 805.009 6.5686)" fill="#29AAF3"/>
<circle cx="805.009" cy="95.2834" r="6.5686" transform="rotate(90 805.009 95.2834)" fill="#29AAF3"/>
<circle cx="805.009" cy="183.998" r="6.5686" transform="rotate(90 805.009 183.998)" fill="#29AAF3"/>
<circle cx="805.009" cy="272.715" r="6.5686" transform="rotate(90 805.009 272.715)" fill="#29AAF3"/>
<circle cx="805.009" cy="361.432" r="6.5686" transform="rotate(90 805.009 361.432)" fill="#29AAF3"/>
<circle cx="716.293" cy="6.5686" r="6.5686" transform="rotate(90 716.293 6.5686)" fill="#29AAF3"/>
<circle cx="716.293" cy="95.2834" r="6.5686" transform="rotate(90 716.293 95.2834)" fill="#29AAF3"/>
<circle cx="716.293" cy="183.998" r="6.5686" transform="rotate(90 716.293 183.998)" fill="#29AAF3"/>
<circle cx="716.293" cy="272.715" r="6.5686" transform="rotate(90 716.293 272.715)" fill="#29AAF3"/>
<circle cx="716.293" cy="361.432" r="6.5686" transform="rotate(90 716.293 361.432)" fill="#29AAF3"/>
<circle cx="627.578" cy="6.5686" r="6.5686" transform="rotate(90 627.578 6.5686)" fill="#29AAF3"/>
<circle cx="627.578" cy="95.2834" r="6.5686" transform="rotate(90 627.578 95.2834)" fill="#29AAF3"/>
<circle cx="627.578" cy="183.998" r="6.5686" transform="rotate(90 627.578 183.998)" fill="#29AAF3"/>
<circle cx="627.578" cy="272.715" r="6.5686" transform="rotate(90 627.578 272.715)" fill="#29AAF3"/>
<circle cx="627.578" cy="361.432" r="6.5686" transform="rotate(90 627.578 361.432)" fill="#29AAF3"/>
<circle cx="538.861" cy="6.5686" r="6.5686" transform="rotate(90 538.861 6.5686)" fill="#29AAF3"/>
<circle cx="538.861" cy="95.2834" r="6.5686" transform="rotate(90 538.861 95.2834)" fill="#29AAF3"/>
<circle cx="538.861" cy="183.998" r="6.5686" transform="rotate(90 538.861 183.998)" fill="#29AAF3"/>
<circle cx="538.861" cy="272.715" r="6.5686" transform="rotate(90 538.861 272.715)" fill="#29AAF3"/>
<circle cx="538.861" cy="361.432" r="6.5686" transform="rotate(90 538.861 361.432)" fill="#29AAF3"/>
<circle cx="450.146" cy="6.5686" r="6.5686" transform="rotate(90 450.146 6.5686)" fill="#29AAF3"/>
<circle cx="450.146" cy="95.2834" r="6.5686" transform="rotate(90 450.146 95.2834)" fill="#29AAF3"/>
<circle cx="450.146" cy="183.998" r="6.5686" transform="rotate(90 450.146 183.998)" fill="#29AAF3"/>
<circle cx="450.146" cy="272.715" r="6.5686" transform="rotate(90 450.146 272.715)" fill="#29AAF3"/>
<circle cx="450.146" cy="361.432" r="6.5686" transform="rotate(90 450.146 361.432)" fill="#29AAF3"/>
<circle cx="361.432" cy="6.5686" r="6.5686" transform="rotate(90 361.432 6.5686)" fill="#29AAF3"/>
<circle cx="361.432" cy="95.2834" r="6.5686" transform="rotate(90 361.432 95.2834)" fill="#29AAF3"/>
<circle cx="361.432" cy="183.998" r="6.5686" transform="rotate(90 361.432 183.998)" fill="#29AAF3"/>
<circle cx="361.432" cy="272.715" r="6.5686" transform="rotate(90 361.432 272.715)" fill="#29AAF3"/>
<circle cx="361.432" cy="361.432" r="6.5686" transform="rotate(90 361.432 361.432)" fill="#29AAF3"/>
<circle cx="272.716" cy="6.5686" r="6.5686" transform="rotate(90 272.716 6.5686)" fill="#29AAF3"/>
<circle cx="272.716" cy="95.2834" r="6.5686" transform="rotate(90 272.716 95.2834)" fill="#29AAF3"/>
<circle cx="272.716" cy="183.998" r="6.5686" transform="rotate(90 272.716 183.998)" fill="#29AAF3"/>
<circle cx="272.716" cy="272.715" r="6.5686" transform="rotate(90 272.716 272.715)" fill="#29AAF3"/>
<circle cx="272.716" cy="361.432" r="6.5686" transform="rotate(90 272.716 361.432)" fill="#29AAF3"/>
<circle cx="184.002" cy="6.5686" r="6.5686" transform="rotate(90 184.002 6.5686)" fill="#29AAF3"/>
<circle cx="184.002" cy="95.2834" r="6.5686" transform="rotate(90 184.002 95.2834)" fill="#29AAF3"/>
<circle cx="184.002" cy="183.998" r="6.5686" transform="rotate(90 184.002 183.998)" fill="#29AAF3"/>
<circle cx="184.002" cy="272.715" r="6.5686" transform="rotate(90 184.002 272.715)" fill="#29AAF3"/>
<circle cx="184.002" cy="361.432" r="6.5686" transform="rotate(90 184.002 361.432)" fill="#29AAF3"/>
<circle cx="95.2839" cy="6.5686" r="6.5686" transform="rotate(90 95.2839 6.5686)" fill="#29AAF3"/>
<circle cx="95.2839" cy="95.2834" r="6.5686" transform="rotate(90 95.2839 95.2834)" fill="#29AAF3"/>
<circle cx="95.2839" cy="183.998" r="6.5686" transform="rotate(90 95.2839 183.998)" fill="#29AAF3"/>
<circle cx="95.2839" cy="272.715" r="6.5686" transform="rotate(90 95.2839 272.715)" fill="#29AAF3"/>
<circle cx="95.2839" cy="361.432" r="6.5686" transform="rotate(90 95.2839 361.432)" fill="#29AAF3"/>
<circle cx="6.5686" cy="6.5686" r="6.5686" transform="rotate(90 6.5686 6.5686)" fill="#29AAF3"/>
<circle cx="6.5686" cy="95.2834" r="6.5686" transform="rotate(90 6.5686 95.2834)" fill="#29AAF3"/>
<circle cx="6.5686" cy="184" r="6.5686" transform="rotate(90 6.5686 184)" fill="#29AAF3"/>
<circle cx="6.5686" cy="272.715" r="6.5686" transform="rotate(90 6.5686 272.715)" fill="#29AAF3"/>
<circle cx="6.5686" cy="361.432" r="6.5686" transform="rotate(90 6.5686 361.432)" fill="#29AAF3"/>
</svg>
