<svg width="668" height="300" viewBox="0 0 668 300" fill="none" xmlns="http://www.w3.org/2000/svg">
<circle cx="665.145" cy="2.5" r="2.5" transform="rotate(90 665.145 2.5)" fill="#29AAF3"/>
<circle cx="665.145" cy="76.127" r="2.5" transform="rotate(90 665.145 76.127)" fill="#29AAF3"/>
<circle cx="665.145" cy="149.754" r="2.5" transform="rotate(90 665.145 149.754)" fill="#29AAF3"/>
<circle cx="665.145" cy="223.381" r="2.5" transform="rotate(90 665.145 223.381)" fill="#29AAF3"/>
<circle cx="665.145" cy="297.008" r="2.5" transform="rotate(90 665.145 297.008)" fill="#29AAF3"/>
<circle cx="591.518" cy="2.5" r="2.5" transform="rotate(90 591.518 2.5)" fill="#29AAF3"/>
<circle cx="591.518" cy="76.127" r="2.5" transform="rotate(90 591.518 76.127)" fill="#29AAF3"/>
<circle cx="591.518" cy="149.754" r="2.5" transform="rotate(90 591.518 149.754)" fill="#29AAF3"/>
<circle cx="591.518" cy="223.381" r="2.5" transform="rotate(90 591.518 223.381)" fill="#29AAF3"/>
<circle cx="591.518" cy="297.008" r="2.5" transform="rotate(90 591.518 297.008)" fill="#29AAF3"/>
<circle cx="517.891" cy="2.5" r="2.5" transform="rotate(90 517.891 2.5)" fill="#29AAF3"/>
<circle cx="517.891" cy="76.127" r="2.5" transform="rotate(90 517.891 76.127)" fill="#29AAF3"/>
<circle cx="517.891" cy="149.754" r="2.5" transform="rotate(90 517.891 149.754)" fill="#29AAF3"/>
<circle cx="517.891" cy="223.381" r="2.5" transform="rotate(90 517.891 223.381)" fill="#29AAF3"/>
<circle cx="517.891" cy="297.008" r="2.5" transform="rotate(90 517.891 297.008)" fill="#29AAF3"/>
<circle cx="444.262" cy="2.5" r="2.5" transform="rotate(90 444.262 2.5)" fill="#29AAF3"/>
<circle cx="444.262" cy="76.127" r="2.5" transform="rotate(90 444.262 76.127)" fill="#29AAF3"/>
<circle cx="444.262" cy="149.754" r="2.5" transform="rotate(90 444.262 149.754)" fill="#29AAF3"/>
<circle cx="444.262" cy="223.381" r="2.5" transform="rotate(90 444.262 223.381)" fill="#29AAF3"/>
<circle cx="444.262" cy="297.008" r="2.5" transform="rotate(90 444.262 297.008)" fill="#29AAF3"/>
<circle cx="370.635" cy="2.5" r="2.5" transform="rotate(90 370.635 2.5)" fill="#29AAF3"/>
<circle cx="370.635" cy="76.127" r="2.5" transform="rotate(90 370.635 76.127)" fill="#29AAF3"/>
<circle cx="370.635" cy="149.754" r="2.5" transform="rotate(90 370.635 149.754)" fill="#29AAF3"/>
<circle cx="370.635" cy="223.381" r="2.5" transform="rotate(90 370.635 223.381)" fill="#29AAF3"/>
<circle cx="370.635" cy="297.008" r="2.5" transform="rotate(90 370.635 297.008)" fill="#29AAF3"/>
<circle cx="297.01" cy="2.5" r="2.5" transform="rotate(90 297.01 2.5)" fill="#29AAF3"/>
<circle cx="297.01" cy="76.127" r="2.5" transform="rotate(90 297.01 76.127)" fill="#29AAF3"/>
<circle cx="297.01" cy="149.754" r="2.5" transform="rotate(90 297.01 149.754)" fill="#29AAF3"/>
<circle cx="297.01" cy="223.381" r="2.5" transform="rotate(90 297.01 223.381)" fill="#29AAF3"/>
<circle cx="297.01" cy="297.008" r="2.5" transform="rotate(90 297.01 297.008)" fill="#29AAF3"/>
<circle cx="223.383" cy="2.5" r="2.5" transform="rotate(90 223.383 2.5)" fill="#29AAF3"/>
<circle cx="223.383" cy="76.127" r="2.5" transform="rotate(90 223.383 76.127)" fill="#29AAF3"/>
<circle cx="223.383" cy="149.754" r="2.5" transform="rotate(90 223.383 149.754)" fill="#29AAF3"/>
<circle cx="223.383" cy="223.381" r="2.5" transform="rotate(90 223.383 223.381)" fill="#29AAF3"/>
<circle cx="223.383" cy="297.008" r="2.5" transform="rotate(90 223.383 297.008)" fill="#29AAF3"/>
<circle cx="149.756" cy="2.5" r="2.5" transform="rotate(90 149.756 2.5)" fill="#29AAF3"/>
<circle cx="149.756" cy="76.127" r="2.5" transform="rotate(90 149.756 76.127)" fill="#29AAF3"/>
<circle cx="149.756" cy="149.754" r="2.5" transform="rotate(90 149.756 149.754)" fill="#29AAF3"/>
<circle cx="149.756" cy="223.381" r="2.5" transform="rotate(90 149.756 223.381)" fill="#29AAF3"/>
<circle cx="149.756" cy="297.008" r="2.5" transform="rotate(90 149.756 297.008)" fill="#29AAF3"/>
<circle cx="76.127" cy="2.5" r="2.5" transform="rotate(90 76.127 2.5)" fill="#29AAF3"/>
<circle cx="76.127" cy="76.127" r="2.5" transform="rotate(90 76.127 76.127)" fill="#29AAF3"/>
<circle cx="76.127" cy="149.754" r="2.5" transform="rotate(90 76.127 149.754)" fill="#29AAF3"/>
<circle cx="76.127" cy="223.381" r="2.5" transform="rotate(90 76.127 223.381)" fill="#29AAF3"/>
<circle cx="76.127" cy="297.008" r="2.5" transform="rotate(90 76.127 297.008)" fill="#29AAF3"/>
<circle cx="2.5" cy="2.5" r="2.5" transform="rotate(90 2.5 2.5)" fill="#29AAF3"/>
<circle cx="2.5" cy="76.127" r="2.5" transform="rotate(90 2.5 76.127)" fill="#29AAF3"/>
<circle cx="2.5" cy="149.754" r="2.5" transform="rotate(90 2.5 149.754)" fill="#29AAF3"/>
<circle cx="2.5" cy="223.381" r="2.5" transform="rotate(90 2.5 223.381)" fill="#29AAF3"/>
<circle cx="2.5" cy="297.008" r="2.5" transform="rotate(90 2.5 297.008)" fill="#29AAF3"/>
</svg>
