<svg width="36" height="30" viewBox="0 0 36 30" fill="none" xmlns="http://www.w3.org/2000/svg">
<path d="M17.5289 13.8128L18.8722 12.7573L18.4768 11.3446L11.311 16.1156L15.6975 20.241L17.9058 19.0057L17.5289 13.8128Z" fill="#9333EA"/>
<path d="M24.3026 11.4646L25.3551 14.8408L27.7935 13.4768L28.8789 11.7722L28.8891 6.06039L24.3026 11.4646Z" fill="#FF7D23"/>
<path d="M18.5863 18.3317L24.3344 15.1161L22.4081 9.99945L17.9607 13.6853L18.5863 18.3317Z" fill="#6B21A8"/>
<path d="M28.26 6.79972C28.4277 8.89709 28.2119 11.3633 28.2139 11.3866C28.2179 11.4469 28.2958 12.8774 26.0013 14.161L17.3591 18.9955C16.574 19.4347 16.0135 19.2081 15.7402 19.0324C14.601 18.3009 13.6122 17.135 13.27 16.839C12.421 16.104 11.4753 15.4371 10.4248 14.8671C10.2232 14.758 10.0162 14.6536 9.80715 14.5523C15.6509 13.0891 22.9588 8.85692 25.9267 7.0427C26.6824 6.5808 26.849 6.47858 27.3037 6.17787C27.4117 6.10669 27.6999 5.91486 27.8906 5.94997C28.0323 5.97601 28.2136 6.21532 28.26 6.79972ZM28.4727 4.8816C27.653 4.72619 26.7997 5.29134 26.6073 5.42821C26.0639 5.77719 14.9922 12.831 8.09687 13.8476C7.72284 13.7197 7.33945 13.6029 6.94393 13.5014C6.69982 13.4395 6.14294 13.3126 5.46947 13.205C4.76204 13.0921 3.88271 13.5561 3.58547 14.2004C3.316 14.7837 3.62796 15.297 4.29623 15.3472C4.74049 15.3804 5.22348 15.4388 5.72207 15.5349C6.83971 15.7509 7.872 16.1466 8.83946 16.6177C9.80774 17.0901 10.7024 17.6596 11.5206 18.3024C11.93 18.6239 13.8069 20.7148 15.9268 21.1696C16.6182 21.318 17.3548 21.389 18.1087 21.3538C19.6238 21.2841 21.1432 20.8568 22.5474 20.29C23.9581 19.7187 25.2793 19.0026 26.5299 18.2211C27.1556 17.8287 27.7631 17.4182 28.3545 16.992C28.9498 16.5608 29.5122 16.1332 30.0909 15.6466C30.3965 15.3887 30.4605 15.0194 30.2299 14.8121C29.9938 14.5999 29.5391 14.6368 29.214 14.8948L29.195 14.9099C28.6911 15.3102 28.1188 15.723 27.5566 16.106C26.9887 16.4916 26.4072 16.8615 25.8157 17.2099C24.6334 17.9055 23.4053 18.5237 22.1633 18.9866C20.925 19.4484 19.6667 19.7491 18.5204 19.7633C18.3827 19.7656 18.247 19.7632 18.1134 19.7569L26.5269 15.0188C29.4803 13.3667 29.5386 11.4201 29.5249 11.0835C29.551 10.7745 29.7338 8.52022 29.5689 6.45954C29.4955 5.5365 29.1264 5.00564 28.4727 4.8816ZM18.9919 22.2772C17.941 22.8651 17.445 23.9258 17.884 24.647C18.3231 25.3682 19.5307 25.4764 20.5815 24.8885C21.6316 24.3011 22.1433 23.2668 21.7044 22.5459C21.2656 21.825 20.042 21.6898 18.9919 22.2772ZM31.2927 17.5512C31.63 18.1052 31.2485 18.9213 30.4415 19.3727C29.6338 19.8245 28.705 19.7415 28.3677 19.1874C28.03 18.6327 28.4117 17.817 29.2194 17.3651C30.0264 16.9137 30.955 16.9965 31.2927 17.5512Z" fill="#F8F8F8"/>
<line x1="0.5" y1="22.5" x2="16.1475" y2="22.5" stroke="#F8F8F8"/>
<line x1="11.9766" y1="26.5" x2="31.7967" y2="26.5" stroke="#F8F8F8"/>
<line x1="22.4062" y1="22.5" x2="27.6221" y2="22.5" stroke="#F8F8F8"/>
<line x1="3.62891" y1="26.5" x2="8.84473" y2="26.5" stroke="#F8F8F8"/>
<path d="M19.2734 13.75C22.2046 15.1567 22.4577 14.44 21.7013 11.857" stroke="#F8F8F8" stroke-width="0.5"/>
</svg>
